<svg xmlns="http://www.w3.org/2000/svg" viewBox="0 0 512 512">
  <defs>
    <!-- Matching Slate Grey Shield Gradient -->
    <linearGradient id="shieldGrad" x1="0%" y1="0%" x2="0%" y2="100%">
      <stop offset="0%" style="stop-color:#475569"/>
      <stop offset="100%" style="stop-color:#334155"/>
    </linearGradient>
    <!-- Document drop shadow -->
    <filter id="docShadow" x="-10%" y="-10%" width="120%" height="130%">
      <feDropShadow dx="0" dy="8" stdDeviation="14" flood-color="#000000" flood-opacity="0.4"/>
    </filter>
    <!-- Shield glow -->
    <filter id="glow" x="-20%" y="-20%" width="140%" height="140%">
      <feDropShadow dx="0" dy="4" stdDeviation="8" flood-color="#334155" flood-opacity="0.5"/>
    </filter>
  </defs>

  <!-- Premium dark slate background (matching the shield) -->
  <rect width="512" height="512" rx="108" fill="#334155"/>

  <!-- Subtle grid overlay -->
  <line x1="32" y1="128" x2="480" y2="128" stroke="#475569" stroke-width="1.5" opacity="0.4"/>
  <line x1="32" y1="224" x2="480" y2="224" stroke="#475569" stroke-width="1.5" opacity="0.4"/>
  <line x1="32" y1="320" x2="480" y2="320" stroke="#475569" stroke-width="1.5" opacity="0.4"/>
  <line x1="32" y1="416" x2="480" y2="416" stroke="#475569" stroke-width="1.5" opacity="0.4"/>
  <line x1="128" y1="32" x2="128" y2="480" stroke="#475569" stroke-width="1.5" opacity="0.4"/>
  <line x1="224" y1="32" x2="224" y2="480" stroke="#475569" stroke-width="1.5" opacity="0.4"/>
  <line x1="320" y1="32" x2="320" y2="480" stroke="#475569" stroke-width="1.5" opacity="0.4"/>
  <line x1="416" y1="32" x2="416" y2="480" stroke="#475569" stroke-width="1.5" opacity="0.4"/>

  <!-- Report Document -->
  <g filter="url(#docShadow)">
    <rect x="112" y="60" width="288" height="392" rx="24" fill="#ffffff"/>

    <!-- Header area -->
    <rect x="112" y="60" width="288" height="60" rx="24" fill="#f8fafc"/>
    <rect x="112" y="96" width="288" height="24" fill="#f8fafc"/>
    <rect x="152" y="80" width="80" height="16" rx="8" fill="#475569"/>
    <rect x="248" y="84" width="40" height="8" rx="4" fill="#d1d5db"/>

    <!-- Report text lines (top) -->
    <rect x="152" y="145" width="208" height="10" rx="5" fill="#94a3b8" opacity="0.7"/>
    <rect x="152" y="169" width="170" height="10" rx="5" fill="#cbd5e1" opacity="0.55"/>

    <!-- Shield centered on document (matching the background color) -->
    <g filter="url(#glow)">
      <path d="M 256 190 L 336 215 C 336 290 300 340 256 366 C 212 340 176 290 176 215 Z" fill="url(#shieldGrad)" stroke="#ffffff" stroke-width="5" stroke-linejoin="round"/>
      <!-- Checkmark -->
      <path d="M 235 275 L 251 291 L 282 255" stroke="#ffffff" stroke-width="8" stroke-linecap="round" stroke-linejoin="round" fill="none"/>
    </g>

    <!-- Report text lines (bottom) -->
    <rect x="152" y="390" width="120" height="8" rx="4" fill="#cbd5e1" opacity="0.4"/>
    <rect x="152" y="408" width="160" height="8" rx="4" fill="#cbd5e1" opacity="0.3"/>
  </g>
</svg>
