<svg xmlns="http://www.w3.org/2000/svg" viewBox="0 0 512 512">
  <defs>
    <linearGradient id="fileGrad" x1="0%" y1="0%" x2="0%" y2="100%">
      <stop offset="0%" style="stop-color:#ffffff"/>
      <stop offset="100%" style="stop-color:#f1f5f9"/>
    </linearGradient>
    <linearGradient id="foldGrad" x1="0%" y1="0%" x2="100%" y2="100%">
      <stop offset="0%" style="stop-color:#e2e8f0"/>
      <stop offset="100%" style="stop-color:#cbd5e1"/>
    </linearGradient>
    <linearGradient id="appGrad" x1="0%" y1="0%" x2="100%" y2="100%">
      <stop offset="0%" style="stop-color:#27272a"/>
      <stop offset="100%" style="stop-color:#09090b"/>
    </linearGradient>
    <filter id="shadow" x="-20%" y="-20%" width="140%" height="140%">
      <feDropShadow dx="0" dy="4" stdDeviation="8" flood-opacity="0.15"/>
    </filter>
  </defs>
  
  <!-- Document shape with folded corner -->
  <path d="M96 32 L352 32 L416 96 L416 480 L96 480 Z" fill="url(#fileGrad)" stroke="#cbd5e1" stroke-width="2" filter="url(#shadow)"/>
  
  <!-- Folded corner -->
  <path d="M352 32 L352 96 L416 96 Z" fill="url(#foldGrad)" stroke="#cbd5e1" stroke-width="2"/>
  
  <!-- App icon on document (smaller version) -->
  <g transform="translate(136, 160) scale(0.47)">
    <!-- Background rounded square -->
    <rect x="32" y="32" width="448" height="448" rx="80" fill="url(#appGrad)"/>
    
    <!-- Paper/Photo coming out -->
    <rect x="120" y="100" width="272" height="200" rx="12" fill="#ffffff" stroke="#e2e8f0" stroke-width="4"/>
    
    <!-- Photo placeholder inside paper -->
    <rect x="140" y="120" width="232" height="140" rx="8" fill="#e4e4e7"/>
    
    <!-- Mountain icon inside photo -->
    <path d="M160 240 L220 180 L260 210 L320 150 L352 240 Z" fill="#71717a" opacity="0.6"/>
    
    <!-- Sun in photo -->
    <circle cx="320" cy="155" r="20" fill="#fbbf24"/>
    
    <!-- Printer body -->
    <rect x="80" y="280" width="352" height="140" rx="20" fill="#18181b"/>
    
    <!-- Printer slot -->
    <rect x="100" y="280" width="312" height="16" rx="4" fill="#09090b"/>
    
    <!-- Printer details - buttons -->
    <circle cx="380" cy="360" r="16" fill="#22c55e"/>
    <circle cx="380" cy="360" r="8" fill="#16a34a"/>
    
    <!-- Printer paper tray indicator -->
    <rect x="120" y="340" width="200" height="8" rx="4" fill="#3f3f46"/>
    <rect x="120" y="360" width="160" height="8" rx="4" fill="#3f3f46"/>
    <rect x="120" y="380" width="180" height="8" rx="4" fill="#3f3f46"/>
  </g>
  
  <!-- File extension label -->
  <rect x="250" y="420" width="150" height="44" rx="8" fill="#18181b"/>
  <text x="325" y="450" font-family="Arial, sans-serif" font-size="20" font-weight="bold" fill="white" text-anchor="middle">.ppfree</text>
</svg>
